<mxfile host="app.diagrams.net" agent="Mozilla/5.0 (Windows NT 10.0; Win64; x64) AppleWebKit/537.36 (KHTML, like Gecko) Chrome/131.0.0.0 Safari/537.36" version="25.0.3">
  <diagram name="Page-1" id="lZ1q6_z91efnz92h6wNo">
    <mxGraphModel dx="703" dy="1430" grid="1" gridSize="10" guides="1" tooltips="1" connect="1" arrows="1" fold="1" page="1" pageScale="1" pageWidth="850" pageHeight="1100" math="0" shadow="0">
      <root>
        <mxCell id="0" />
        <mxCell id="1" parent="0" />
        <mxCell id="jA7OHrT02d0z7Ygq6u0A-1" value="User" style="shape=umlActor;verticalLabelPosition=bottom;verticalAlign=top;html=1;outlineConnect=0;" vertex="1" parent="1">
          <mxGeometry x="40" y="280" width="30" height="60" as="geometry" />
        </mxCell>
        <mxCell id="jA7OHrT02d0z7Ygq6u0A-27" value="" style="edgeStyle=none;curved=1;rounded=0;orthogonalLoop=1;jettySize=auto;html=1;fontSize=12;startSize=8;endSize=8;entryX=0;entryY=0.5;entryDx=0;entryDy=0;endArrow=none;endFill=0;" edge="1" parent="1" source="jA7OHrT02d0z7Ygq6u0A-2" target="jA7OHrT02d0z7Ygq6u0A-7">
          <mxGeometry relative="1" as="geometry">
            <mxPoint x="255" y="250" as="targetPoint" />
          </mxGeometry>
        </mxCell>
        <mxCell id="jA7OHrT02d0z7Ygq6u0A-2" value="New User" style="shape=umlActor;verticalLabelPosition=bottom;verticalAlign=top;html=1;outlineConnect=0;" vertex="1" parent="1">
          <mxGeometry x="130" y="220" width="30" height="60" as="geometry" />
        </mxCell>
        <mxCell id="jA7OHrT02d0z7Ygq6u0A-3" value="Old User" style="shape=umlActor;verticalLabelPosition=bottom;verticalAlign=top;html=1;outlineConnect=0;" vertex="1" parent="1">
          <mxGeometry x="130" y="340" width="30" height="60" as="geometry" />
        </mxCell>
        <mxCell id="jA7OHrT02d0z7Ygq6u0A-4" value="Group Admin" style="shape=umlActor;verticalLabelPosition=bottom;verticalAlign=top;html=1;outlineConnect=0;" vertex="1" parent="1">
          <mxGeometry x="220" y="310" width="30" height="60" as="geometry" />
        </mxCell>
        <mxCell id="jA7OHrT02d0z7Ygq6u0A-5" value="Group Member" style="shape=umlActor;verticalLabelPosition=bottom;verticalAlign=top;html=1;outlineConnect=0;" vertex="1" parent="1">
          <mxGeometry x="220" y="400" width="30" height="60" as="geometry" />
        </mxCell>
        <mxCell id="jA7OHrT02d0z7Ygq6u0A-7" value="Sign up" style="ellipse;whiteSpace=wrap;html=1;" vertex="1" parent="1">
          <mxGeometry x="370" y="200" width="55" height="30" as="geometry" />
        </mxCell>
        <mxCell id="jA7OHrT02d0z7Ygq6u0A-8" value="" style="endArrow=blockThin;html=1;rounded=0;fontSize=12;startSize=8;endSize=8;curved=1;endFill=0;exitX=0.5;exitY=0.5;exitDx=0;exitDy=0;exitPerimeter=0;" edge="1" parent="1" source="jA7OHrT02d0z7Ygq6u0A-2">
          <mxGeometry width="50" height="50" relative="1" as="geometry">
            <mxPoint x="250" y="340" as="sourcePoint" />
            <mxPoint x="60" y="310" as="targetPoint" />
          </mxGeometry>
        </mxCell>
        <mxCell id="jA7OHrT02d0z7Ygq6u0A-10" value="" style="endArrow=blockThin;html=1;rounded=0;fontSize=12;startSize=8;endSize=8;curved=1;endFill=0;entryX=0.5;entryY=0.5;entryDx=0;entryDy=0;entryPerimeter=0;" edge="1" parent="1" source="jA7OHrT02d0z7Ygq6u0A-3" target="jA7OHrT02d0z7Ygq6u0A-1">
          <mxGeometry width="50" height="50" relative="1" as="geometry">
            <mxPoint x="140" y="270" as="sourcePoint" />
            <mxPoint x="80" y="310" as="targetPoint" />
          </mxGeometry>
        </mxCell>
        <mxCell id="jA7OHrT02d0z7Ygq6u0A-11" value="" style="endArrow=blockThin;html=1;rounded=0;fontSize=12;startSize=8;endSize=8;curved=1;endFill=0;exitX=0.5;exitY=0.5;exitDx=0;exitDy=0;exitPerimeter=0;" edge="1" parent="1" source="jA7OHrT02d0z7Ygq6u0A-4" target="jA7OHrT02d0z7Ygq6u0A-3">
          <mxGeometry width="50" height="50" relative="1" as="geometry">
            <mxPoint x="155" y="260" as="sourcePoint" />
            <mxPoint x="70" y="320" as="targetPoint" />
          </mxGeometry>
        </mxCell>
        <mxCell id="jA7OHrT02d0z7Ygq6u0A-12" value="" style="endArrow=blockThin;html=1;rounded=0;fontSize=12;startSize=8;endSize=8;curved=1;endFill=0;exitX=0;exitY=0.3333333333333333;exitDx=0;exitDy=0;exitPerimeter=0;" edge="1" parent="1" source="jA7OHrT02d0z7Ygq6u0A-5">
          <mxGeometry width="50" height="50" relative="1" as="geometry">
            <mxPoint x="245" y="350" as="sourcePoint" />
            <mxPoint x="150" y="370" as="targetPoint" />
          </mxGeometry>
        </mxCell>
        <mxCell id="jA7OHrT02d0z7Ygq6u0A-34" value="" style="edgeStyle=none;curved=1;rounded=0;orthogonalLoop=1;jettySize=auto;html=1;fontSize=12;startSize=8;endSize=8;endArrow=blockThin;endFill=1;dashed=1;" edge="1" parent="1" source="jA7OHrT02d0z7Ygq6u0A-13" target="jA7OHrT02d0z7Ygq6u0A-18">
          <mxGeometry relative="1" as="geometry" />
        </mxCell>
        <mxCell id="jA7OHrT02d0z7Ygq6u0A-35" value="&amp;lt;&amp;lt;include&amp;gt;&amp;gt;" style="edgeLabel;html=1;align=center;verticalAlign=middle;resizable=0;points=[];fontSize=12;" vertex="1" connectable="0" parent="jA7OHrT02d0z7Ygq6u0A-34">
          <mxGeometry x="-0.4114" y="2" relative="1" as="geometry">
            <mxPoint as="offset" />
          </mxGeometry>
        </mxCell>
        <mxCell id="jA7OHrT02d0z7Ygq6u0A-13" value="Login" style="ellipse;whiteSpace=wrap;html=1;" vertex="1" parent="1">
          <mxGeometry x="370" y="240" width="55" height="30" as="geometry" />
        </mxCell>
        <mxCell id="jA7OHrT02d0z7Ygq6u0A-14" value="NewsFeed" style="ellipse;whiteSpace=wrap;html=1;" vertex="1" parent="1">
          <mxGeometry x="370" y="280" width="55" height="30" as="geometry" />
        </mxCell>
        <mxCell id="jA7OHrT02d0z7Ygq6u0A-15" value="View friends" style="ellipse;whiteSpace=wrap;html=1;" vertex="1" parent="1">
          <mxGeometry x="367.5" y="322.5" width="60" height="35" as="geometry" />
        </mxCell>
        <mxCell id="jA7OHrT02d0z7Ygq6u0A-16" value="View Groups" style="ellipse;whiteSpace=wrap;html=1;" vertex="1" parent="1">
          <mxGeometry x="367.5" y="365" width="60" height="35" as="geometry" />
        </mxCell>
        <mxCell id="jA7OHrT02d0z7Ygq6u0A-17" value="Logout" style="ellipse;whiteSpace=wrap;html=1;" vertex="1" parent="1">
          <mxGeometry x="367.5" y="500" width="55" height="30" as="geometry" />
        </mxCell>
        <mxCell id="jA7OHrT02d0z7Ygq6u0A-18" value="Load" style="ellipse;whiteSpace=wrap;html=1;" vertex="1" parent="1">
          <mxGeometry x="545" y="235" width="55" height="30" as="geometry" />
        </mxCell>
        <mxCell id="jA7OHrT02d0z7Ygq6u0A-19" value="Save" style="ellipse;whiteSpace=wrap;html=1;" vertex="1" parent="1">
          <mxGeometry x="550" y="280" width="55" height="30" as="geometry" />
        </mxCell>
        <mxCell id="jA7OHrT02d0z7Ygq6u0A-23" value="" style="edgeStyle=none;curved=1;rounded=0;orthogonalLoop=1;jettySize=auto;html=1;fontSize=12;startSize=8;endSize=8;entryX=0;entryY=0.5;entryDx=0;entryDy=0;endArrow=none;endFill=0;dashed=1;" edge="1" parent="1" source="jA7OHrT02d0z7Ygq6u0A-20" target="jA7OHrT02d0z7Ygq6u0A-21">
          <mxGeometry relative="1" as="geometry" />
        </mxCell>
        <mxCell id="jA7OHrT02d0z7Ygq6u0A-25" value="&amp;lt;&amp;lt;extend&amp;gt;&amp;gt;" style="edgeLabel;html=1;align=center;verticalAlign=middle;resizable=0;points=[];fontSize=12;" vertex="1" connectable="0" parent="jA7OHrT02d0z7Ygq6u0A-23">
          <mxGeometry x="0.0833" y="-1" relative="1" as="geometry">
            <mxPoint as="offset" />
          </mxGeometry>
        </mxCell>
        <mxCell id="jA7OHrT02d0z7Ygq6u0A-20" value="Search" style="ellipse;whiteSpace=wrap;html=1;" vertex="1" parent="1">
          <mxGeometry x="367.5" y="412.5" width="60" height="35" as="geometry" />
        </mxCell>
        <mxCell id="jA7OHrT02d0z7Ygq6u0A-21" value="Join group" style="ellipse;whiteSpace=wrap;html=1;" vertex="1" parent="1">
          <mxGeometry x="540" y="412.5" width="60" height="35" as="geometry" />
        </mxCell>
        <mxCell id="jA7OHrT02d0z7Ygq6u0A-22" value="Add friend" style="ellipse;whiteSpace=wrap;html=1;" vertex="1" parent="1">
          <mxGeometry x="542.5" y="460" width="57.5" height="40" as="geometry" />
        </mxCell>
        <mxCell id="jA7OHrT02d0z7Ygq6u0A-24" value="" style="edgeStyle=none;curved=1;rounded=0;orthogonalLoop=1;jettySize=auto;html=1;fontSize=12;startSize=8;endSize=8;entryX=0;entryY=0.5;entryDx=0;entryDy=0;endArrow=none;endFill=0;dashed=1;exitX=0;exitY=0.5;exitDx=0;exitDy=0;" edge="1" parent="1" source="jA7OHrT02d0z7Ygq6u0A-21" target="jA7OHrT02d0z7Ygq6u0A-22">
          <mxGeometry relative="1" as="geometry">
            <mxPoint x="430" y="430" as="sourcePoint" />
            <mxPoint x="498" y="440" as="targetPoint" />
          </mxGeometry>
        </mxCell>
        <mxCell id="jA7OHrT02d0z7Ygq6u0A-28" value="" style="edgeStyle=none;curved=1;rounded=0;orthogonalLoop=1;jettySize=auto;html=1;fontSize=12;startSize=8;endSize=8;entryX=0;entryY=0.5;entryDx=0;entryDy=0;endArrow=none;endFill=0;" edge="1" parent="1" target="jA7OHrT02d0z7Ygq6u0A-13">
          <mxGeometry relative="1" as="geometry">
            <mxPoint x="150" y="370" as="sourcePoint" />
            <mxPoint x="380" y="225" as="targetPoint" />
            <Array as="points">
              <mxPoint x="220" y="290" />
            </Array>
          </mxGeometry>
        </mxCell>
        <mxCell id="jA7OHrT02d0z7Ygq6u0A-29" value="" style="edgeStyle=none;curved=1;rounded=0;orthogonalLoop=1;jettySize=auto;html=1;fontSize=12;startSize=8;endSize=8;entryX=0;entryY=0.5;entryDx=0;entryDy=0;endArrow=none;endFill=0;exitX=0;exitY=0.5;exitDx=0;exitDy=0;" edge="1" parent="1" source="jA7OHrT02d0z7Ygq6u0A-13" target="jA7OHrT02d0z7Ygq6u0A-14">
          <mxGeometry relative="1" as="geometry">
            <mxPoint x="280" y="310" as="sourcePoint" />
            <mxPoint x="380" y="265" as="targetPoint" />
            <Array as="points">
              <mxPoint x="230" y="300" />
            </Array>
          </mxGeometry>
        </mxCell>
        <mxCell id="jA7OHrT02d0z7Ygq6u0A-30" value="" style="edgeStyle=none;curved=1;rounded=0;orthogonalLoop=1;jettySize=auto;html=1;fontSize=12;startSize=8;endSize=8;entryX=0;entryY=0.5;entryDx=0;entryDy=0;endArrow=none;endFill=0;exitX=0;exitY=0.5;exitDx=0;exitDy=0;" edge="1" parent="1">
          <mxGeometry relative="1" as="geometry">
            <mxPoint x="370" y="295" as="sourcePoint" />
            <mxPoint x="370" y="335" as="targetPoint" />
            <Array as="points">
              <mxPoint x="230" y="340" />
            </Array>
          </mxGeometry>
        </mxCell>
        <mxCell id="jA7OHrT02d0z7Ygq6u0A-31" value="" style="edgeStyle=none;curved=1;rounded=0;orthogonalLoop=1;jettySize=auto;html=1;fontSize=12;startSize=8;endSize=8;entryX=0;entryY=0.5;entryDx=0;entryDy=0;endArrow=none;endFill=0;exitX=0;exitY=0.5;exitDx=0;exitDy=0;" edge="1" parent="1">
          <mxGeometry relative="1" as="geometry">
            <mxPoint x="370" y="340" as="sourcePoint" />
            <mxPoint x="370" y="380" as="targetPoint" />
            <Array as="points">
              <mxPoint x="230" y="385" />
            </Array>
          </mxGeometry>
        </mxCell>
        <mxCell id="jA7OHrT02d0z7Ygq6u0A-32" value="" style="edgeStyle=none;curved=1;rounded=0;orthogonalLoop=1;jettySize=auto;html=1;fontSize=12;startSize=8;endSize=8;entryX=0;entryY=0.5;entryDx=0;entryDy=0;endArrow=none;endFill=0;exitX=0;exitY=0.5;exitDx=0;exitDy=0;" edge="1" parent="1" target="jA7OHrT02d0z7Ygq6u0A-20">
          <mxGeometry relative="1" as="geometry">
            <mxPoint x="367.5" y="380" as="sourcePoint" />
            <mxPoint x="367.5" y="420" as="targetPoint" />
            <Array as="points">
              <mxPoint x="227.5" y="425" />
            </Array>
          </mxGeometry>
        </mxCell>
        <mxCell id="jA7OHrT02d0z7Ygq6u0A-33" value="" style="edgeStyle=none;curved=1;rounded=0;orthogonalLoop=1;jettySize=auto;html=1;fontSize=12;startSize=8;endSize=8;entryX=0;entryY=0.5;entryDx=0;entryDy=0;endArrow=none;endFill=0;exitX=0;exitY=0.5;exitDx=0;exitDy=0;" edge="1" parent="1" target="jA7OHrT02d0z7Ygq6u0A-17">
          <mxGeometry relative="1" as="geometry">
            <mxPoint x="367.5" y="430" as="sourcePoint" />
            <mxPoint x="367.5" y="470" as="targetPoint" />
            <Array as="points">
              <mxPoint x="227.5" y="475" />
            </Array>
          </mxGeometry>
        </mxCell>
        <mxCell id="jA7OHrT02d0z7Ygq6u0A-36" value="" style="endArrow=none;dashed=1;html=1;dashPattern=1 3;strokeWidth=2;rounded=0;fontSize=12;startSize=8;endSize=8;curved=1;" edge="1" parent="1">
          <mxGeometry width="50" height="50" relative="1" as="geometry">
            <mxPoint x="430" y="290" as="sourcePoint" />
            <mxPoint x="500" y="250" as="targetPoint" />
          </mxGeometry>
        </mxCell>
        <mxCell id="jA7OHrT02d0z7Ygq6u0A-37" value="" style="endArrow=none;dashed=1;html=1;rounded=0;fontSize=12;startSize=8;endSize=8;curved=1;exitX=1;exitY=0.5;exitDx=0;exitDy=0;" edge="1" parent="1" source="jA7OHrT02d0z7Ygq6u0A-15">
          <mxGeometry width="50" height="50" relative="1" as="geometry">
            <mxPoint x="410" y="330" as="sourcePoint" />
            <mxPoint x="490" y="250" as="targetPoint" />
          </mxGeometry>
        </mxCell>
        <mxCell id="jA7OHrT02d0z7Ygq6u0A-38" value="" style="endArrow=none;dashed=1;html=1;rounded=0;fontSize=12;startSize=8;endSize=8;curved=1;exitX=1;exitY=0.5;exitDx=0;exitDy=0;" edge="1" parent="1" source="jA7OHrT02d0z7Ygq6u0A-16">
          <mxGeometry width="50" height="50" relative="1" as="geometry">
            <mxPoint x="438" y="350" as="sourcePoint" />
            <mxPoint x="490" y="250" as="targetPoint" />
          </mxGeometry>
        </mxCell>
        <mxCell id="jA7OHrT02d0z7Ygq6u0A-39" value="" style="endArrow=none;dashed=1;html=1;rounded=0;fontSize=12;startSize=8;endSize=8;curved=1;" edge="1" parent="1">
          <mxGeometry width="50" height="50" relative="1" as="geometry">
            <mxPoint x="430" y="430" as="sourcePoint" />
            <mxPoint x="490" y="250" as="targetPoint" />
          </mxGeometry>
        </mxCell>
        <mxCell id="jA7OHrT02d0z7Ygq6u0A-40" value="" style="edgeStyle=none;curved=1;rounded=0;orthogonalLoop=1;jettySize=auto;html=1;fontSize=12;startSize=8;endSize=8;endArrow=blockThin;endFill=1;dashed=1;entryX=0.5;entryY=1;entryDx=0;entryDy=0;" edge="1" parent="1" target="jA7OHrT02d0z7Ygq6u0A-19">
          <mxGeometry relative="1" as="geometry">
            <mxPoint x="570" y="410" as="sourcePoint" />
            <mxPoint x="555" y="261" as="targetPoint" />
          </mxGeometry>
        </mxCell>
        <mxCell id="jA7OHrT02d0z7Ygq6u0A-41" value="&amp;lt;&amp;lt;include&amp;gt;&amp;gt;" style="edgeLabel;html=1;align=center;verticalAlign=middle;resizable=0;points=[];fontSize=12;" vertex="1" connectable="0" parent="jA7OHrT02d0z7Ygq6u0A-40">
          <mxGeometry x="-0.4114" y="2" relative="1" as="geometry">
            <mxPoint as="offset" />
          </mxGeometry>
        </mxCell>
        <mxCell id="jA7OHrT02d0z7Ygq6u0A-42" value="" style="endArrow=none;dashed=1;html=1;rounded=0;fontSize=12;startSize=8;endSize=8;curved=1;entryX=0.5;entryY=0;entryDx=0;entryDy=0;exitX=1;exitY=0.5;exitDx=0;exitDy=0;" edge="1" parent="1" source="jA7OHrT02d0z7Ygq6u0A-22" target="jA7OHrT02d0z7Ygq6u0A-21">
          <mxGeometry width="50" height="50" relative="1" as="geometry">
            <mxPoint x="630" y="413" as="sourcePoint" />
            <mxPoint x="500" y="260" as="targetPoint" />
            <Array as="points">
              <mxPoint x="650" y="400" />
            </Array>
          </mxGeometry>
        </mxCell>
        <mxCell id="jA7OHrT02d0z7Ygq6u0A-43" value="" style="endArrow=none;dashed=1;html=1;rounded=0;fontSize=12;startSize=8;endSize=8;curved=1;entryX=1;entryY=0.5;entryDx=0;entryDy=0;exitX=0.5;exitY=1;exitDx=0;exitDy=0;" edge="1" parent="1" source="jA7OHrT02d0z7Ygq6u0A-19" target="jA7OHrT02d0z7Ygq6u0A-7">
          <mxGeometry width="50" height="50" relative="1" as="geometry">
            <mxPoint x="610" y="490" as="sourcePoint" />
            <mxPoint x="580" y="423" as="targetPoint" />
            <Array as="points">
              <mxPoint x="660" y="410" />
              <mxPoint x="620" y="170" />
            </Array>
          </mxGeometry>
        </mxCell>
        <mxCell id="jA7OHrT02d0z7Ygq6u0A-44" value="Delete group" style="ellipse;whiteSpace=wrap;html=1;" vertex="1" parent="1">
          <mxGeometry x="460" y="495" width="60" height="35" as="geometry" />
        </mxCell>
        <mxCell id="jA7OHrT02d0z7Ygq6u0A-45" value="Delete member" style="ellipse;whiteSpace=wrap;html=1;" vertex="1" parent="1">
          <mxGeometry x="460" y="550" width="60" height="35" as="geometry" />
        </mxCell>
        <mxCell id="jA7OHrT02d0z7Ygq6u0A-46" value="" style="edgeStyle=none;curved=1;rounded=0;orthogonalLoop=1;jettySize=auto;html=1;fontSize=12;startSize=8;endSize=8;entryX=0;entryY=0.5;entryDx=0;entryDy=0;endArrow=none;endFill=0;exitX=0.5;exitY=0.5;exitDx=0;exitDy=0;exitPerimeter=0;" edge="1" parent="1" source="jA7OHrT02d0z7Ygq6u0A-4" target="jA7OHrT02d0z7Ygq6u0A-44">
          <mxGeometry relative="1" as="geometry">
            <mxPoint x="160" y="380" as="sourcePoint" />
            <mxPoint x="380" y="265" as="targetPoint" />
            <Array as="points">
              <mxPoint x="230" y="300" />
              <mxPoint x="330" y="610" />
            </Array>
          </mxGeometry>
        </mxCell>
        <mxCell id="jA7OHrT02d0z7Ygq6u0A-48" value="" style="edgeStyle=none;curved=1;rounded=0;orthogonalLoop=1;jettySize=auto;html=1;fontSize=12;startSize=8;endSize=8;entryX=0;entryY=0.5;entryDx=0;entryDy=0;endArrow=none;endFill=0;exitX=0;exitY=0.5;exitDx=0;exitDy=0;" edge="1" parent="1" source="jA7OHrT02d0z7Ygq6u0A-44" target="jA7OHrT02d0z7Ygq6u0A-45">
          <mxGeometry relative="1" as="geometry">
            <mxPoint x="377.5" y="390" as="sourcePoint" />
            <mxPoint x="378" y="440" as="targetPoint" />
            <Array as="points">
              <mxPoint x="237.5" y="435" />
            </Array>
          </mxGeometry>
        </mxCell>
        <mxCell id="jA7OHrT02d0z7Ygq6u0A-49" value="" style="edgeStyle=none;curved=1;rounded=0;orthogonalLoop=1;jettySize=auto;html=1;fontSize=12;startSize=8;endSize=8;endArrow=blockThin;endFill=1;dashed=1;entryX=0.5;entryY=0;entryDx=0;entryDy=0;" edge="1" parent="1" target="jA7OHrT02d0z7Ygq6u0A-44">
          <mxGeometry relative="1" as="geometry">
            <mxPoint x="430" y="380" as="sourcePoint" />
            <mxPoint x="555" y="261" as="targetPoint" />
          </mxGeometry>
        </mxCell>
        <mxCell id="jA7OHrT02d0z7Ygq6u0A-50" value="&amp;lt;&amp;lt;include&amp;gt;&amp;gt;" style="edgeLabel;html=1;align=center;verticalAlign=middle;resizable=0;points=[];fontSize=12;" vertex="1" connectable="0" parent="jA7OHrT02d0z7Ygq6u0A-49">
          <mxGeometry x="-0.4114" y="2" relative="1" as="geometry">
            <mxPoint as="offset" />
          </mxGeometry>
        </mxCell>
        <mxCell id="jA7OHrT02d0z7Ygq6u0A-51" value="" style="endArrow=none;dashed=1;html=1;rounded=0;fontSize=12;startSize=8;endSize=8;curved=1;entryX=0.5;entryY=0;entryDx=0;entryDy=0;exitX=1;exitY=0.5;exitDx=0;exitDy=0;" edge="1" parent="1" source="jA7OHrT02d0z7Ygq6u0A-45" target="jA7OHrT02d0z7Ygq6u0A-44">
          <mxGeometry width="50" height="50" relative="1" as="geometry">
            <mxPoint x="440" y="440" as="sourcePoint" />
            <mxPoint x="500" y="260" as="targetPoint" />
            <Array as="points">
              <mxPoint x="560" y="490" />
            </Array>
          </mxGeometry>
        </mxCell>
        <mxCell id="jA7OHrT02d0z7Ygq6u0A-52" value="" style="edgeStyle=none;curved=1;rounded=0;orthogonalLoop=1;jettySize=auto;html=1;fontSize=12;startSize=8;endSize=8;endArrow=blockThin;endFill=1;dashed=1;entryX=0.5;entryY=1;entryDx=0;entryDy=0;exitX=0.5;exitY=0;exitDx=0;exitDy=0;" edge="1" parent="1" source="jA7OHrT02d0z7Ygq6u0A-44" target="jA7OHrT02d0z7Ygq6u0A-19">
          <mxGeometry relative="1" as="geometry">
            <mxPoint x="580" y="420" as="sourcePoint" />
            <mxPoint x="588" y="320" as="targetPoint" />
          </mxGeometry>
        </mxCell>
        <mxCell id="jA7OHrT02d0z7Ygq6u0A-53" value="&amp;lt;&amp;lt;include&amp;gt;&amp;gt;" style="edgeLabel;html=1;align=center;verticalAlign=middle;resizable=0;points=[];fontSize=12;" vertex="1" connectable="0" parent="jA7OHrT02d0z7Ygq6u0A-52">
          <mxGeometry x="-0.4114" y="2" relative="1" as="geometry">
            <mxPoint as="offset" />
          </mxGeometry>
        </mxCell>
        <mxCell id="jA7OHrT02d0z7Ygq6u0A-54" value="" style="swimlane;startSize=0;" vertex="1" parent="1">
          <mxGeometry x="330" y="160" width="360" height="460" as="geometry" />
        </mxCell>
        <mxCell id="jA7OHrT02d0z7Ygq6u0A-55" value="Connect Hub" style="text;html=1;align=center;verticalAlign=middle;resizable=0;points=[];autosize=1;strokeColor=none;fillColor=none;fontSize=16;" vertex="1" parent="1">
          <mxGeometry x="454" y="161" width="120" height="30" as="geometry" />
        </mxCell>
      </root>
    </mxGraphModel>
  </diagram>
</mxfile>
